<?xml version="1.0" encoding="UTF-8" standalone="no"?>
<!DOCTYPE svg PUBLIC "-//W3C//DTD SVG 1.1//EN" "http://www.w3.org/Graphics/SVG/1.1/DTD/svg11.dtd">
<!-- Created with Vectornator (http://vectornator.io/) -->
<svg height="100%" stroke-miterlimit="10" style="fill-rule:nonzero;clip-rule:evenodd;stroke-linecap:round;stroke-linejoin:round;" version="1.1" viewBox="0 0 16 16" width="100%" xml:space="preserve" xmlns="http://www.w3.org/2000/svg" xmlns:vectornator="http://vectornator.io" xmlns:xlink="http://www.w3.org/1999/xlink">
<defs/>
<g id="Layer-1" vectornator:layerName="Layer-1" visibility="hidden">
<path d="M2.61689 3.99881C2.60744 3.95156 2.59799 3.90429 2.58853 3.85704" fill="#000000" fill-rule="nonzero" opacity="1" stroke="none"/>
<path d="M10.6569 2.45946C9.82858 1.39017 7.7156 1.11461 6.5056 1.22911C2.69365 1.58984-0.380403 6.23161 2.51743 9.49979C4.7503 12.018 7.69518 12.3449 10.5498 10.8272C11.3567 10.3983 12.1474 9.96889 12.6948 9.20929C13.7325 7.76923 13.4148 5.11987 12.3548 3.71658C11.9942 3.23918 11.4478 2.69973 10.9017 2.43723C10.8232 2.3995 10.2641 2.09841 10.2714 2.23419" fill="#ffc3c3" fill-rule="nonzero" opacity="1" stroke="#ffc3c3" stroke-linecap="round" stroke-linejoin="round" stroke-width="0.27995"/>
<path d="M4.81502 2.13262C4.53392 1.05541 2.79612-0.0392074 1.6972 0.362201C0.512393 0.794981 0.0448645 2.49864 0.349141 3.59819C0.47515 4.05355 0.758597 4.37549 1.10149 4.68082C1.54315 5.07411 2.2628 5.67626 2.91208 5.46773" fill="#ffc3c3" fill-rule="nonzero" opacity="1" stroke="#ffc3c3" stroke-linecap="round" stroke-linejoin="round" stroke-width="0.27995"/>
<path d="M12.7855 6.46213C12.8425 6.17674 13.8788 6.60057 14.0177 6.68119C14.7475 7.105 16.1025 8.55087 15.6606 9.51519C14.9191 11.1331 11.5234 9.56053 12.3063 8.25563" fill="#ffc3c3" fill-rule="nonzero" opacity="1" stroke="#ffc3c3" stroke-linecap="round" stroke-linejoin="round" stroke-width="0.27995"/>
<path d="M11.8074 12.056C12.0317 12.2508 10.9466 10.8917 10.3634 10.6644C9.17129 10.1997 7.42768 10.4332 7.39792 12.0263C7.366 13.7349 9.61691 14.7507 11.0781 14.4143C11.604 14.2932 12.4123 13.6137 12.2646 12.9723C12.2021 12.7006 11.7334 11.9916 11.8074 12.056Z" fill="#e55555" fill-rule="nonzero" opacity="1" stroke="#e55555" stroke-linecap="round" stroke-linejoin="round" stroke-width="0.27995"/>
<path d="M2.15919 6.15426C1.57266 5.56773 0.726165 6.0925 0.445423 6.73821C-0.1095 8.01454 0.63583 9.27943 2.00685 9.40407C2.40147 9.43994 2.80558 9.33652 3.14937 9.13749C3.47816 8.94713 3.78896 8.70354 3.92373 8.33773C4.29498 7.33006 3.59737 6.31823 2.67967 5.95115C2.2105 5.76348 1.30945 5.58061 1.10554 6.19234" fill="#e55555" fill-rule="nonzero" opacity="1" stroke="#e55555" stroke-linecap="round" stroke-linejoin="round" stroke-width="0.27995"/>
<path d="M4.54776 3.42538C4.30004 3.33015 4.00966 3.70697 4.3079 3.84921C4.60634 3.99151 4.87771 3.55224 4.54776 3.42538Z" fill="#554545" fill-rule="nonzero" opacity="1" stroke="#554545" stroke-linecap="round" stroke-linejoin="round" stroke-width="0.27995"/>
<path d="M11.9466 7.50719C11.6906 7.39853 11.4503 7.73295 11.7489 7.85587C12.0072 7.96221 12.2124 7.62003 11.9466 7.50719Z" fill="#554545" fill-rule="nonzero" opacity="1" stroke="#554545" stroke-linecap="round" stroke-linejoin="round" stroke-width="0.27995"/>
</g>
<clipPath id="ArtboardFrame">
<rect height="16" width="16" x="0" y="0"/>
</clipPath>
<g clip-path="url(#ArtboardFrame)" id="Layer-1-copy" vectornator:layerName="Layer-1-copy">
<path d="M4.15989 6.12274C4.15166 6.08156 4.14342 6.04038 4.13518 5.99919" fill="#000000" fill-rule="nonzero" opacity="1" stroke="none"/>
<path d="M11.1663 4.78129C10.4444 3.84947 8.6031 3.60934 7.54866 3.70912C4.22678 4.02347 1.54794 8.06848 4.07322 10.9165C6.01902 13.111 8.58529 13.3958 11.073 12.0733C11.7761 11.6995 12.4652 11.3253 12.9422 10.6633C13.8465 9.40842 13.5696 7.09967 12.6459 5.87679C12.3317 5.46077 11.8555 4.99067 11.3796 4.76192C11.3112 4.72904 10.824 4.46666 10.8303 4.58498" fill="#ffc3c3" fill-rule="nonzero" opacity="1" stroke="#ffc3c3" stroke-linecap="round" stroke-linejoin="round" stroke-width="0.27995"/>
<path d="M6.07542 4.49647C5.83046 3.55775 4.31608 2.60386 3.35844 2.95366C2.32595 3.3308 1.91853 4.81543 2.18369 5.77363C2.2935 6.17044 2.5405 6.45099 2.83931 6.71708C3.22418 7.05979 3.85132 7.58454 4.41712 7.40281" fill="#ffc3c3" fill-rule="nonzero" opacity="1" stroke="#ffc3c3" stroke-linecap="round" stroke-linejoin="round" stroke-width="0.27995"/>
<path d="M13.0212 8.26937C13.0709 8.02068 13.9739 8.39001 14.0949 8.46026C14.731 8.82959 15.9118 10.0896 15.5266 10.9299C14.8804 12.3398 11.9213 10.9694 12.6036 9.8323" fill="#ffc3c3" fill-rule="nonzero" opacity="1" stroke="#ffc3c3" stroke-linecap="round" stroke-linejoin="round" stroke-width="0.27995"/>
<path d="M12.1688 13.144C12.3643 13.3138 11.4188 12.1295 10.9105 11.9314C9.87164 11.5265 8.35219 11.7299 8.32625 13.1182C8.29844 14.6071 10.26 15.4923 11.5333 15.1991C11.9915 15.0936 12.696 14.5015 12.5673 13.9425C12.5128 13.7057 12.1043 13.088 12.1688 13.144Z" fill="#e55555" fill-rule="nonzero" opacity="1" stroke="#e55555" stroke-linecap="round" stroke-linejoin="round" stroke-width="0.27995"/>
<path d="M3.76103 8.00108C3.24991 7.48995 2.51224 7.94726 2.26759 8.50995C1.78401 9.62219 2.43352 10.7245 3.62828 10.8331C3.97217 10.8643 4.32432 10.7742 4.62391 10.6008C4.91043 10.4349 5.18127 10.2226 5.29872 9.90383C5.62224 9.02571 5.01432 8.14397 4.21459 7.82408C3.80575 7.66054 3.02054 7.50118 2.84284 8.03427" fill="#e55555" fill-rule="nonzero" opacity="1" stroke="#e55555" stroke-linecap="round" stroke-linejoin="round" stroke-width="0.27995"/>
<path d="M5.84251 5.62303C5.62665 5.54004 5.37359 5.86842 5.6335 5.99237C5.89356 6.11638 6.13005 5.73358 5.84251 5.62303Z" fill="#554545" fill-rule="nonzero" opacity="1" stroke="#554545" stroke-linecap="round" stroke-linejoin="round" stroke-width="0.27995"/>
<path d="M12.2901 9.18007C12.0671 9.08538 11.8576 9.37681 12.1178 9.48392C12.343 9.57659 12.5218 9.27841 12.2901 9.18007Z" fill="#554545" fill-rule="nonzero" opacity="1" stroke="#554545" stroke-linecap="round" stroke-linejoin="round" stroke-width="0.27995"/>
<path d="M-1.63226 9.27384C-1.64108 9.27047-1.64991 9.2671-1.65873 9.26373" fill="#554545" fill-rule="nonzero" opacity="1" stroke="#554545" stroke-linecap="round" stroke-linejoin="round" stroke-width="0.27995"/>
</g>
<g clip-path="url(#ArtboardFrame)" id="Layer-3" vectornator:layerName="Layer-3">
<path d="M17.8706 4.9563C17.9302 4.81323 18.2235 4.20811 18.0775 4.6516" fill="#fddf19" fill-rule="nonzero" opacity="1" stroke="#fddf19" stroke-linecap="round" stroke-linejoin="round" stroke-width="0.27995"/>
<path d="M17.3057 4.45608L17.2959 4.38893L17.3117 4.34088L17.2926 4.36654L17.2926 4.36654" fill="#fddf19" fill-rule="nonzero" opacity="1" stroke="#fddf19" stroke-linecap="round" stroke-linejoin="round" stroke-width="0.27995"/>
<path d="M6.74864 1.61462C6.81597 1.47724 6.99202 1.03681 7.1842 1.12882C7.3895 1.22712 7.13861 1.65534 7.28142 1.77357C7.35239 1.83233 8.15552 1.65112 8.0946 1.94928C8.0046 2.38971 7.54634 2.1714 7.2555 2.27391C7.06538 2.34092 7.34376 2.71657 7.22274 2.87779C6.89522 3.31409 6.65821 2.32548 6.60928 2.28497C6.51536 2.20721 6.15496 2.87482 5.93566 2.7102C5.79163 2.60207 5.77554 2.24959 5.92608 2.15013C6.04362 2.07248 6.36675 2.12974 6.31993 1.99687C6.29372 1.92251 5.98232 1.83872 5.91112 1.77978C5.41416 1.36834 6.68007 1.75454 6.74864 1.61462Z" fill="#fddf19" fill-rule="nonzero" opacity="1" stroke="#fddf19" stroke-linecap="round" stroke-linejoin="round" stroke-width="0.27995"/>
<path d="M13.9981 13.7027C14.1468 13.8092 14.0289 13.2117 14.1753 13.0894C14.4876 12.8285 14.611 13.5554 14.668 13.6858C14.6933 13.7438 15.1502 13.5806 15.2606 13.6726C15.3062 13.7106 15.2471 13.788 15.2265 13.8174C15.1085 13.9856 14.7576 13.9544 14.7105 14.1544C14.6727 14.3145 15.3953 14.6319 14.9476 14.9089C14.6805 15.0742 14.4876 14.7082 14.3806 14.5352C14.3683 14.5153 14.2939 14.35 14.265 14.377C14.1631 14.4721 14.0753 15.2711 13.8486 15.2177C13.482 15.1314 13.7533 14.3374 13.6846 14.1529C13.667 14.1057 13.0885 14.3581 13.0348 14.1308C12.977 13.8868 13.8651 13.6075 13.9981 13.7027Z" fill="#fddf19" fill-rule="nonzero" opacity="1" stroke="#fddf19" stroke-linecap="round" stroke-linejoin="round" stroke-width="0.27995"/>
<path d="M12.42 10.3106C11.876 10.0555 10.7025 10.1264 11.0219 10.8706C11.2788 11.4692 12.4616 11.8841 12.7654 11.1234C12.8296 10.9627 12.7573 10.4688 12.42 10.3106Z" fill="#d96c6c" fill-rule="nonzero" opacity="1" stroke="#d96c6c" stroke-linecap="round" stroke-linejoin="round" stroke-width="0.27995"/>
<path d="M5.00374 6.45389C4.83633 6.07673 4.81106 5.63273 4.31285 5.45907C3.78003 5.27334 3.13347 5.77903 3.33089 6.32173C3.4357 6.60985 3.72108 7.16595 4.06574 7.2252C4.46614 7.29404 5.23271 6.96972 5.00374 6.45389Z" fill="#d96c6c" fill-rule="nonzero" opacity="1" stroke="#d96c6c" stroke-linecap="round" stroke-linejoin="round" stroke-width="0.27995"/>
</g>
<g id="Layer-2" vectornator:layerName="Layer-2">
<path d="M2.15537 4.29048C2.07962 4.33214 2.17951 4.89136 2.10301 5.12087C1.85671 5.85977 1.10628 6.81749 2.23767 7.14074C2.5588 7.23249 2.90603 7.23297 3.2102 7.08089C4.49854 6.43672 3.88555 3.33894 2.15537 4.29048Z" fill="#554545" fill-rule="nonzero" opacity="1" stroke="#554545" stroke-linecap="round" stroke-linejoin="round" stroke-width="0.27995"/>
<path d="M1.54941 4.7917C1.85806 4.54339 3.67512 4.41216 3.74883 4.0436C3.90456 3.26496 3.2678 0.944223 2.64164 0.318067C2.42295 0.0993752 0.399251 0.519888 0.352453 0.707079C0.332041 0.788728 0.700532 1.33316 0.741465 1.42525C1.05948 2.14078 1.42008 2.84412 1.72896 3.56482C1.85891 3.86804 1.85156 4.08893 1.78881 4.40269C1.76004 4.54653 1.37975 4.9282 1.54941 4.7917Z" fill="#bab5b5" fill-rule="nonzero" opacity="1" stroke="#bab5b5" stroke-linecap="round" stroke-linejoin="round" stroke-width="0.27995"/>
</g>
</svg>
